<svg xmlns="http://www.w3.org/2000/svg" width="14" height="14" viewBox="0 0 14 14"><g><g><path fill="#fff" d="M2.141 11.856l.51-1.53-.016-.117-.11-.16a5.383 5.383 0 0 1-.942-3.052A5.425 5.425 0 0 1 7.004 1.58c2.99 0 5.422 2.43 5.422 5.417a5.425 5.425 0 0 1-8.476 4.475l-.16-.11-.118-.016zm-.629-1.437L.48 13.516l3.097-1.032a6.432 6.432 0 0 0 3.423.98 6.425 6.425 0 0 0 4.572-1.895 6.425 6.425 0 0 0 1.894-4.572 6.425 6.425 0 0 0-1.894-4.573A6.425 6.425 0 0 0 7 .53a6.425 6.425 0 0 0-4.573 1.894A6.425 6.425 0 0 0 .533 6.997c0 1.218.337 2.396.98 3.422z"/></g></g></svg>