<svg xmlns="http://www.w3.org/2000/svg" width="12" height="12" viewBox="0 0 12 12"><g><g><path fill="#fff" d="M2.618.922c.034 0 .068.016.1.043l1.843 1.888.043.043c-.003-.004.027.045-.029.1L3.424 4.15l-.216.201.1.288s.53 1.418 1.642 2.479l.1.086c1.07.978 2.332 1.513 2.332 1.513l.288.13 1.367-1.369c.08-.08.065-.08.144 0l1.885 1.887c.08.08.08.05 0 .13l-1.41 1.412c-.212.182-.437.22-.705.13-1.044-.41-3.071-1.302-4.88-3.112C2.25 6.1 1.299 4.03.95 3.025c-.07-.187-.02-.464.143-.604l.03-.03L2.516.966a.161.161 0 0 1 .101-.043zm0-.922c-.241 0-.479.086-.676.245l-.03.014-.014.015L.46 1.758l.015.014a1.446 1.446 0 0 0-.389 1.556c.002.004-.002.011 0 .015.39 1.118 1.389 3.278 3.339 5.23 1.957 1.96 4.143 2.92 5.224 3.343h.015c.56.187 1.166.054 1.597-.317l1.454-1.455a1.032 1.032 0 0 0 0-1.427L9.843 6.844l-.014-.029c-.382-.382-1.058-.382-1.44 0l-.92.922a7.45 7.45 0 0 1-1.886-1.296c-.754-.72-1.139-1.55-1.281-1.874l.921-.922a.985.985 0 0 0-.014-1.412l.014-.014-.043-.043L3.338.274 3.323.259 3.294.245A1.084 1.084 0 0 0 2.618 0z"/></g></g></svg>