<svg xmlns="http://www.w3.org/2000/svg" width="200" height="62" viewBox="0 0 200 62"><g><g><g><path fill="#fff" d="M3.07 1.17h196.256v59.31H3.07z"/></g><g><g><path fill="#090908" d="M86.63 15.21v31.35h21.965V42.7H91.047V15.21z"/></g><g><path fill="#090908" d="M146.32 30.885c0 9.008-7.162 15.676-16.951 15.559H117.67V15.21h11.699c9.789 0 16.952 6.668 16.952 15.675zm-24.233 11.817h7.278c7.279 0 12.29-4.797 12.29-11.817 0-6.902-5.011-11.816-12.29-11.816h-7.278z"/></g><g><path fill="#090908" d="M166.729 15.21c9.789 0 16.952 6.668 16.952 15.558 0 9.125-7.044 15.676-16.952 15.676H155.03V15.21h11.699m-.004 27.49c7.16 0 12.29-4.796 12.29-11.815 0-6.901-5.011-11.815-12.29-11.815h-7.278V42.7h7.278"/></g><g><path fill="#c53232" d="M32.19 18.37a4.212 4.212 0 0 0-2.865-1.17c-1.074 0-2.03.35-2.865 1.17l-3.82 3.743 4.894 4.796c.24-1.403.955-2.573 1.91-3.626l3.82-3.743z"/></g><g><path fill="#c53232" d="M43.54 26.91l4.894-4.797-3.82-3.743a4.212 4.212 0 0 0-2.865-1.17c-1.075 0-2.03.35-2.865 1.17l-1.194 1.17 3.82 3.743c1.074 1.053 1.79 2.223 2.03 3.626"/></g><g><path fill="#c53232" d="M39.354 30.998c.716-.701 1.194-1.754 1.194-2.807s-.358-1.989-1.194-2.808l-3.82-3.743-3.82 3.743c-.716.702-1.194 1.755-1.194 2.808s.358 1.989 1.194 2.807l3.82 3.744z"/></g><g><path fill="#c53232" d="M200 0v62H0V0zM18.346 22.11l17.19 16.845 17.19-16.846-5.968-5.849c-1.313-1.286-3.104-1.988-5.014-1.988-1.91 0-3.7.702-5.014 1.988l-1.194 1.17-1.193-1.17c-1.314-1.286-3.104-1.988-5.014-1.988-1.91 0-3.701.702-5.014 1.988zm39.036 4.562l-2.148-2.106-19.698 19.185L15.84 24.566l-2.149 2.106 19.698 19.302 2.148 2.105zM196.805 3.509H71.588v54.748h125.217z"/></g></g></g></g></svg>