<?xml version="1.0" encoding="utf-8"?>
<!-- Generator: Adobe Illustrator 21.0.0, SVG Export Plug-In . SVG Version: 6.00 Build 0)  -->
<svg version="1.1" id="Слой_1" xmlns="http://www.w3.org/2000/svg" xmlns:xlink="http://www.w3.org/1999/xlink" x="0px" y="0px"
	 viewBox="0 0 64 64" style="enable-background:new 0 0 64 64;" xml:space="preserve">
<style type="text/css">
	.st0{fill:#C43131;}
</style>
<g>
	<path class="st0" d="M62.9,0H11.7c-0.6,0-1.1,0.5-1.1,1.1v8.5H1.1C0.5,9.6,0,10.1,0,10.7V48c0,0.6,0.5,1.1,1.1,1.1h9.6V63
		c0,0.4,0.3,0.8,0.7,1c0.1,0.1,0.3,0.1,0.4,0.1c0.3,0,0.6-0.1,0.8-0.3l14.6-14.6h25.2c0.6,0,1.1-0.5,1.1-1.1v-8.5h9.6
		c0.6,0,1.1-0.5,1.1-1.1V1.1C64,0.5,63.5,0,62.9,0z M61.9,37.3h-8.5V10.7c0-0.6-0.5-1.1-1.1-1.1H12.8V2.1h49.1
		C61.9,2.1,61.9,37.3,61.9,37.3z"/>
</g>
</svg>
