<?xml version="1.0" encoding="utf-8"?>
<!-- Generator: Adobe Illustrator 21.0.0, SVG Export Plug-In . SVG Version: 6.00 Build 0)  -->
<svg version="1.1" id="Слой_1" xmlns="http://www.w3.org/2000/svg" xmlns:xlink="http://www.w3.org/1999/xlink" x="0px" y="0px"
	 viewBox="0 0 64 64" style="enable-background:new 0 0 64 64;" xml:space="preserve">
<style type="text/css">
	.st0{fill:#C43131;}
</style>
<g>
	<path class="st0" d="M21.6,7.7c2.3,0.9,4.8,1.2,7.2,0.8c0.1,0,0.2,0.1,0.3,0.1c0.5,0.1,1.2,0.1,1.8-0.1c0.3-0.1,0.6-0.2,0.9-0.4
		C32,8,32.2,7.8,32.3,7.7c0,0,0,0,0,0c1.9,0.8,3.9,1.1,5.9,1c0.1,0.1,0.2,0.2,0.3,0.2C38.8,9,39,9.1,39.3,9.2
		c0.2,0.1,0.5,0.2,0.8,0.3c0.5,0.1,1.2,0.1,1.8-0.1c0.3-0.1,0.6-0.2,0.9-0.4c0.3-0.2,0.5-0.3,0.7-0.6c0.2-0.2,0.5-0.5,0.6-0.7
		L44.3,7c1.1-0.4,2.2-0.8,3.4-0.6c1.5,0.2,2.1,1.4,3.9,2.3c0.4-2.1-0.2-3-0.9-3.9c-0.7-0.9-1.5-1.8-2.7-2.1c-2-0.5-4.1,1-6,0.3
		c-1.2-0.4-1.9-1.6-2.9-2.2c-1.1-0.7-2.5-0.8-3.7-0.5c-0.4,0.1-0.9,0.2-1.3,0.4c-0.2-0.1-0.5-0.2-0.7-0.2c-0.5-0.1-1.2-0.1-1.8,0.1
		c-0.3,0.1-0.6,0.2-0.9,0.4C30.5,1,30.3,1.1,30,1.4c-0.1,0.1-0.2,0.2-0.3,0.4c-0.4-0.4-0.8-0.8-1.3-1.1c-1.1-0.7-2.5-0.8-3.7-0.5
		c-1.2,0.3-2.4,0.8-3.5,1.5c-1.1,0.6-2.2,1.4-2.4,2.6C18.6,5,19,5.8,19.5,6.4S20.8,7.4,21.6,7.7z"/>
	<path class="st0" d="M61.5,48.9v-8.7h-4.7l-2-29.6h-7l-2.3,29.6h-4.2V23.5L28.9,32v-8.5L16.6,32v-8.5L4.4,32v16.9H0V64h64V48.9
		H61.5z M20.1,51.2h-9.7v-8.8h9.7V51.2z M36.7,51.2H27v-8.8h9.7V51.2z M53.6,51.2h-9.7v-8.8h9.7V51.2z"/>
</g>
</svg>
