<?xml version="1.0" encoding="utf-8"?>
<!-- Generator: Adobe Illustrator 21.0.0, SVG Export Plug-In . SVG Version: 6.00 Build 0)  -->
<svg version="1.1" id="Слой_1" xmlns="http://www.w3.org/2000/svg" xmlns:xlink="http://www.w3.org/1999/xlink" x="0px" y="0px"
	 viewBox="0 0 64 64" style="enable-background:new 0 0 64 64;" xml:space="preserve">
<style type="text/css">
	.st0{fill:#C43131;}
</style>
<g>
	<path class="st0" d="M27.2,50.5h32c2.7,0,4.8,2.2,4.8,4.8V64H22.4v-8.7C22.4,52.6,24.6,50.5,27.2,50.5z"/>
	<path class="st0" d="M0.9,51.1l29.2-29.2l-5.6-5.6c-0.9,0.8-2.4,0.8-3.2-0.1c-0.9-0.9-0.9-2.4,0-3.3L33.3,0.7
		c0.9-0.9,2.4-0.9,3.3,0c0.9,0.9,0.9,2.4,0,3.3l0.1-0.1l15.4,15.4l-0.1,0.1c0.9-0.9,2.4-0.9,3.3,0c0.9,0.9,0.9,2.4,0,3.3L43.3,35
		c-0.9,0.9-2.4,0.9-3.3,0C39,34,39,32.6,40,31.6l-0.1,0.1l-5.6-5.6L5,55.3c-1.1,1.1-3,1.1-4.2,0C-0.3,54.1-0.3,52.3,0.9,51.1z"/>
</g>
</svg>
