<svg width="11" height="12" viewBox="0 0 11 12" fill="none" xmlns="http://www.w3.org/2000/svg">
<path fill-rule="evenodd" clip-rule="evenodd" d="M5.309 8.85L5.664 9.206L9.244 5.626L8.883 5.27L5.664 8.488L2.446 5.27L2.085 5.626L5.309 8.85ZM4.645 3.172C4.334 3.172 4.045 3.294 3.827 3.512L2.848 4.491L5.664 7.309L8.481 4.491L7.502 3.512C7.284 3.294 6.989 3.172 6.684 3.172C6.377 3.172 6.082 3.294 5.865 3.512L5.664 3.712L5.464 3.512C5.247 3.294 4.952 3.172 4.645 3.172ZM0.939 0.923V0H10.273V12H0.939V11.12H0V10.396H0.939V9.541H0V8.818H0.939V7.962H0V7.239H0.939V6.383H0V5.66H0.939V4.804H0V4.081H0.939V3.225H0V2.502H0.939V1.646H0V0.923H0.939ZM7.7688 4.4909L6.9668 5.2929C6.9228 5.0639 6.8168 4.8579 6.6508 4.6909L6.0268 4.0679L6.2218 3.8679C6.3438 3.7449 6.5108 3.6789 6.6838 3.6789C6.8558 3.6789 7.0228 3.7449 7.1458 3.8679L7.7688 4.4909ZM6.477 5.5096C6.477 5.6826 6.41 5.8496 6.288 5.9726L5.664 6.5956L5.041 5.9726C4.919 5.8496 4.851 5.6826 4.851 5.5096C4.851 5.3376 4.919 5.1706 5.041 5.0476L5.664 4.4246L6.288 5.0476C6.41 5.1706 6.477 5.3376 6.477 5.5096ZM5.1132 3.8681C4.9912 3.7451 4.8242 3.6791 4.6512 3.6791C4.4782 3.6791 4.3112 3.7451 4.1892 3.8681L3.5652 4.4911L4.3672 5.2931C4.4062 5.0641 4.5172 4.8581 4.6902 4.6911L5.3132 4.0681L5.1132 3.8681Z" fill="#C53232"/>
</svg>
