<svg width="16" height="16" viewBox="0 0 16 16" fill="none" xmlns="http://www.w3.org/2000/svg">
<path fill-rule="evenodd" clip-rule="evenodd" d="M1.5333 7.99987C1.5333 6.27283 2.20614 4.64847 3.42735 3.42726C4.64857 2.20604 6.27292 1.5332 7.99997 1.5332C9.72701 1.5332 11.3514 2.20604 12.5726 3.42726C13.7938 4.64847 14.4666 6.27283 14.4666 7.99987C14.4666 9.72691 13.7938 11.3513 12.5726 12.5725C11.3514 13.7937 9.727 14.4665 7.99997 14.4665C6.78188 14.4665 5.60388 14.1291 4.57725 13.4871L1.48047 14.5193L2.51272 11.4226C1.87073 10.3959 1.5333 9.21793 1.5333 7.99987ZM4.67035 12.3491L4.78774 12.3655L4.94825 12.4752C5.84937 13.091 6.90441 13.4164 7.99997 13.4164C10.9865 13.4164 13.4165 10.9864 13.4165 7.99987C13.4165 5.01332 10.9865 2.58337 7.99997 2.58337C5.01342 2.58337 2.58347 5.01332 2.58347 7.99987C2.58347 9.09541 2.90889 10.1505 3.52467 11.0516L3.63434 11.2121L3.65074 11.3295L3.14093 12.8589L4.67035 12.3491Z" fill="#C53232"/>
</svg>
