<?xml version="1.0" encoding="utf-8"?>
<!-- Generator: Adobe Illustrator 21.0.0, SVG Export Plug-In . SVG Version: 6.00 Build 0)  -->
<svg version="1.1" id="Слой_1" xmlns="http://www.w3.org/2000/svg" xmlns:xlink="http://www.w3.org/1999/xlink" x="0px" y="0px"
	 viewBox="0 0 64 64" style="enable-background:new 0 0 64 64;" xml:space="preserve">
<style type="text/css">
	.st0{fill:#fff;}
</style>
<g>
	<path class="st0" d="M27.5,46.8c0,9.3,7.5,16.8,16.8,16.8s16.8-7.5,16.8-16.8c0-9.3-7.5-16.8-16.8-16.8S27.5,37.5,27.5,46.8
		L27.5,46.8z M37.8,40.2c0.4-0.4,1-0.7,1.6-0.7c0.6,0,1.2,0.2,1.6,0.7c0.4,0.4,0.7,1,0.7,1.6c0,0.6-0.2,1.2-0.7,1.6
		c-0.4,0.4-1,0.7-1.6,0.7c-0.6,0-1.2-0.2-1.6-0.7c-0.4-0.4-0.7-1-0.7-1.6C37.1,41.2,37.4,40.7,37.8,40.2L37.8,40.2z M50.9,53.4
		c-0.4,0.4-1,0.7-1.6,0.7c-0.6,0-1.2-0.2-1.6-0.7c-0.4-0.4-0.7-1-0.7-1.6c0-0.6,0.2-1.2,0.7-1.6c0.4-0.4,1-0.7,1.6-0.7
		c0.6,0,1.2,0.2,1.6,0.7c0.4,0.4,0.7,1,0.7,1.6C51.6,52.4,51.3,53,50.9,53.4L50.9,53.4z M50.9,40.3c0.9,0.9,0.9,2.3,0,3.2L41,53.4
		c-0.4,0.4-1,0.7-1.6,0.7s-1.1-0.2-1.6-0.7c-0.9-0.9-0.9-2.3,0-3.2l9.9-9.9C48.6,39.4,50,39.4,50.9,40.3L50.9,40.3z M50.9,40.3"/>
	<path class="st0" d="M23,46.8c0-11.8,9.6-21.3,21.3-21.3c0.4,0,0.8,0,1.2,0V2.2c0-1.2-1-2.2-2.2-2.2H5.1C3.8,0,2.8,1,2.8,2.2v59.5
		c0,1.2,1,2.2,2.2,2.2h26.7C26.5,60.1,23,53.9,23,46.8L23,46.8z M15.5,11.9h15.9c1.2,0,2.2,1,2.2,2.2c0,1.2-1,2.2-2.2,2.2H15.5
		c-1.2,0-2.2-1-2.2-2.2C13.3,12.9,14.3,11.9,15.5,11.9L15.5,11.9z M15.5,23.8h15.9c1.2,0,2.2,1,2.2,2.2c0,1.2-1,2.2-2.2,2.2H15.5
		c-1.2,0-2.2-1-2.2-2.2C13.3,24.8,14.3,23.8,15.5,23.8L15.5,23.8z M19.5,40.2h-4c-1.2,0-2.2-1-2.2-2.2c0-1.2,1-2.2,2.2-2.2h4
		c1.2,0,2.2,1,2.2,2.2C21.7,39.2,20.7,40.2,19.5,40.2L19.5,40.2z M19.5,40.2"/>
</g>
</svg>
