<?xml version="1.0" encoding="utf-8"?>
<!-- Generator: Adobe Illustrator 21.0.0, SVG Export Plug-In . SVG Version: 6.00 Build 0)  -->
<svg version="1.1" id="Слой_1" xmlns="http://www.w3.org/2000/svg" xmlns:xlink="http://www.w3.org/1999/xlink" x="0px" y="0px"
	 viewBox="0 0 64 64" style="enable-background:new 0 0 64 64;" xml:space="preserve">
<style type="text/css">
	.st0{fill:#fff;}
</style>
<path class="st0" d="M55.6,46c0-1.6,0-13.1,0-13.1H32V15.1h6.5V0h-15v15.1h6.4v17.8H6.4V47C2.8,47.5,0,50.7,0,54.4
	C0,58.6,3.4,62,7.5,62s7.5-3.4,7.5-7.5c0-3.8-2.8-6.9-6.4-7.5V35h21.3v11.9h-6.4V62h15V46.9H32V35h21.5V46l-8.4,8.5l9.5,9.5l9.5-9.5
	L55.6,46z"/>
</svg>
