<?xml version="1.0" encoding="utf-8"?>
<!-- Generator: Adobe Illustrator 21.0.0, SVG Export Plug-In . SVG Version: 6.00 Build 0)  -->
<svg version="1.1" id="Слой_1" xmlns="http://www.w3.org/2000/svg" xmlns:xlink="http://www.w3.org/1999/xlink" x="0px" y="0px"
	 viewBox="0 0 64 64" style="enable-background:new 0 0 64 64;" xml:space="preserve">
<style type="text/css">
	.st0{fill:#fff;}
</style>
<g>
	<path class="st0" d="M32,64c3,0,5.6-1.3,7.4-3.5H24.6C26.4,62.7,29,64,32,64z"/>
	<path class="st0" d="M19.1,54.3c0,1.2,0.9,2.1,2.1,2.1h21.5c1.2,0,2.1-0.9,2.1-2.1v-7H19.1V54.3z"/>
	<rect x="30.6" y="34.4" class="st0" width="2.9" height="8.7"/>
	<path class="st0" d="M25.4,28.2c-0.6,0-1,0.5-1,1c0,0.6,0.5,1,1,1h1v-1C26.4,28.7,25.9,28.2,25.4,28.2z"/>
	<path class="st0" d="M39.6,29.3c0-0.6-0.5-1-1-1c-0.6,0-1,0.5-1,1v1h1C39.2,30.3,39.6,29.8,39.6,29.3z"/>
	<path class="st0" d="M32,0C20.2,0,10.5,9.6,10.5,21.5c0,6.8,3.2,13.1,8.6,17.2v4.5h7.2v-8.7h-1c-2.9,0-5.2-2.3-5.2-5.2
		c0-2.9,2.3-5.2,5.2-5.2c2.9,0,5.2,2.3,5.2,5.2v1h2.9v-1c0-2.9,2.3-5.2,5.2-5.2c2.9,0,5.2,2.3,5.2,5.2c0,2.9-2.3,5.2-5.2,5.2h-1v8.7
		h7.2v-4.5c5.4-4,8.6-10.4,8.6-17.2C53.5,9.6,43.8,0,32,0z"/>
</g>
</svg>
