<?xml version="1.0" encoding="utf-8"?>
<!-- Generator: Adobe Illustrator 21.0.0, SVG Export Plug-In . SVG Version: 6.00 Build 0)  -->
<svg version="1.1" id="Слой_1" xmlns="http://www.w3.org/2000/svg" xmlns:xlink="http://www.w3.org/1999/xlink" x="0px" y="0px"
	 viewBox="0 0 64 64" style="enable-background:new 0 0 64 64;" xml:space="preserve">
<style type="text/css">
	.st0{fill:#fff;}
</style>
<g>
	<path class="st0" d="M7.5,55.4c-0.6,0-1,0.5-1,1c0,0.6,0.5,1,1,1c0.3,0,0.5-0.1,0.7-0.3c0.4-0.4,0.4-1.1,0-1.5
		C8.1,55.5,7.8,55.4,7.5,55.4z"/>
	<path class="st0" d="M61.9,13.2L61.9,13.2l-0.3-0.3c-0.4-0.4-1.1-0.4-1.5,0l-7.4,7.4c-2,2-5.4,2.1-7.4,0c0,0,0,0,0,0l-1.5-1.5
		c-2-2-2-5.4,0-7.4l0,0L51.1,4c0.1-0.1,0.2-0.2,0.2-0.3c0,0,0,0,0,0c0-0.1,0-0.2,0-0.3c0,0,0-0.1,0-0.1c0,0,0-0.1,0-0.1
		c0-0.2-0.1-0.5-0.3-0.6l-0.3-0.3c-2.3-2.3-5.9-2.8-8.8-1.2l-8.7,4.6c0,0-0.1,0.1-0.1,0.1c-5,3.8-5.5,10.5-3.8,15.7l-0.8,1.9
		c-0.9,2.1-2.2,4-3.8,5.6L2.2,51.5c-2.9,2.9-2.9,7.5,0,10.4c2.9,2.9,7.5,2.9,10.4,0l22.7-22.7c1.6-1.6,3.5-2.9,5.6-3.8l1.9-0.8
		c1.8,0.6,3.7,0.9,5.6,0.9c4,0.2,7.8-1.6,10.2-4.7c0,0,0.1-0.1,0.1-0.1l4.5-8.7C64.7,19.1,64.2,15.5,61.9,13.2z M9.7,58.7
		c-0.6,0.6-1.4,0.9-2.2,0.9c-1.7,0-3.1-1.4-3.1-3.1c0-1.7,1.4-3.1,3.1-3.1c1.7,0,3.1,1.4,3.1,3.1C10.7,57.3,10.3,58.1,9.7,58.7z"/>
</g>
</svg>
